<svg width="100" height="100" viewBox="0 0 100 100" fill="none" xmlns="http://www.w3.org/2000/svg">
<g clip-path="url(#clip0_156_60)">
<rect width="100" height="100" rx="24" fill="#3662E3"/>
<path d="M41.92 80.6C41.6 82.008 40.896 82.936 39.808 83.384C38.72 83.896 37.568 83.992 36.352 83.672C35.2 83.416 34.24 82.84 33.472 81.944C32.768 80.984 32.608 79.8 32.992 78.392C32.16 79.608 31.104 80.248 29.824 80.312C28.544 80.312 27.328 79.928 26.176 79.16C25.088 78.392 24.288 77.432 23.776 76.28C23.328 75.064 23.52 73.848 24.352 72.632C23.072 73.336 21.952 73.56 20.992 73.304C20.032 72.984 19.328 72.44 18.88 71.672C18.432 70.84 18.368 69.976 18.688 69.08C19.008 68.12 19.808 67.288 21.088 66.584C20.704 65.24 20.8 64.152 21.376 63.32C22.016 62.424 22.848 61.816 23.872 61.496C24.896 61.176 25.888 61.24 26.848 61.688C27.872 62.136 28.576 63 28.96 64.28C29.216 62.936 30.048 62.04 31.456 61.592C32.864 61.144 34.432 61.048 36.16 61.304C37.888 61.56 39.392 62.104 40.672 62.936C42.016 63.768 42.752 64.856 42.88 66.2C43.072 65.112 43.68 64.248 44.704 63.608C45.728 62.968 46.944 62.552 48.352 62.36C49.76 62.168 51.104 62.2 52.384 62.456C52.32 61.688 52.576 60.92 53.152 60.152C52.576 59.512 52.448 58.616 52.768 57.464C52.192 58.68 51.104 59.448 49.504 59.768C47.968 60.088 46.336 60.056 44.608 59.672C42.88 59.288 41.408 58.616 40.192 57.656C39.04 56.696 38.592 55.512 38.848 54.104C38.336 55.384 37.408 56.152 36.064 56.408C34.784 56.6 33.472 56.408 32.128 55.832C30.784 55.256 29.728 54.424 28.96 53.336C28.192 52.248 28.096 51.096 28.672 49.88C27.52 50.712 26.368 51 25.216 50.744C24.064 50.424 23.136 49.784 22.432 48.824C21.728 47.864 21.376 46.808 21.376 45.656C21.376 44.504 21.952 43.48 23.104 42.584C21.504 42.776 20.256 42.584 19.36 42.008C18.528 41.432 18.048 40.728 17.92 39.896C17.792 39 18.08 38.168 18.784 37.4C19.488 36.568 20.64 36.056 22.24 35.864C20.512 35.416 19.264 34.776 18.496 33.944C17.792 33.048 17.536 32.184 17.728 31.352C17.984 30.52 18.624 29.912 19.648 29.528C20.736 29.08 22.144 29.112 23.872 29.624C22.464 28.536 21.632 27.448 21.376 26.36C21.12 25.208 21.248 24.28 21.76 23.576C22.336 22.872 23.168 22.52 24.256 22.52C25.408 22.52 26.688 23.064 28.096 24.152C27.328 22.872 27.04 21.72 27.232 20.696C27.424 19.672 27.904 18.936 28.672 18.488C29.44 17.976 30.304 17.88 31.264 18.2C32.288 18.456 33.184 19.224 33.952 20.504C33.632 19.096 33.824 17.944 34.528 17.048C35.296 16.088 36.288 15.448 37.504 15.128C38.72 14.808 39.872 14.872 40.96 15.32C42.112 15.768 42.88 16.664 43.264 18.008C43.328 16.664 43.84 15.608 44.8 14.84C45.76 14.008 46.912 13.496 48.256 13.304C49.664 13.048 51.04 13.112 52.384 13.496C53.792 13.816 54.912 14.424 55.744 15.32C56.64 16.152 57.056 17.272 56.992 18.68C57.632 17.4 58.56 16.6 59.776 16.28C60.992 15.96 62.304 15.992 63.712 16.376C65.184 16.696 66.496 17.304 67.648 18.2C68.864 19.032 69.728 20.056 70.24 21.272C70.816 22.424 70.816 23.608 70.24 24.824C71.264 24.248 72.32 24.248 73.408 24.824C74.496 25.4 75.392 26.296 76.096 27.512C76.8 28.728 77.152 29.944 77.152 31.16C77.152 32.376 76.64 33.304 75.616 33.944C75.616 35.224 74.976 36.184 73.696 36.824C72.48 37.464 71.072 37.784 69.472 37.784C67.872 37.784 66.432 37.464 65.152 36.824C63.936 36.184 63.328 35.224 63.328 33.944C63.072 35.16 62.4 35.96 61.312 36.344C60.224 36.728 59.04 36.824 57.76 36.632C56.48 36.376 55.36 35.864 54.4 35.096C53.504 34.328 53.088 33.368 53.152 32.216C52.96 33.24 52.384 33.976 51.424 34.424C50.528 34.872 49.568 35.032 48.544 34.904C48.8 36.568 48.288 37.944 47.008 39.032C47.072 39.48 47.008 39.992 46.816 40.568C47.52 39.608 48.672 39.032 50.272 38.84C51.936 38.584 53.632 38.68 55.36 39.128C57.152 39.512 58.624 40.184 59.776 41.144C60.928 42.04 61.408 43.128 61.216 44.408C61.664 43.256 62.528 42.616 63.808 42.488C65.152 42.296 66.56 42.488 68.032 43.064C69.504 43.576 70.688 44.344 71.584 45.368C72.544 46.392 72.8 47.448 72.352 48.536C73.44 47.896 74.528 47.896 75.616 48.536C76.768 49.176 77.728 50.136 78.496 51.416C79.264 52.696 79.648 54.008 79.648 55.352C79.712 56.632 79.2 57.592 78.112 58.232C79.52 58.424 80.48 59.128 80.992 60.344C81.568 61.56 81.728 62.872 81.472 64.28C81.28 65.688 80.736 66.872 79.84 67.832C79.008 68.792 77.856 69.176 76.384 68.984C77.152 69.88 77.376 70.936 77.056 72.152C76.8 73.304 76.192 74.456 75.232 75.608C74.272 76.696 73.152 77.624 71.872 78.392C70.592 79.096 69.344 79.512 68.128 79.64C66.912 79.704 65.92 79.256 65.152 78.296C65.472 79.768 65.152 80.984 64.192 81.944C63.232 82.904 61.984 83.544 60.448 83.864C58.976 84.248 57.6 84.184 56.32 83.672C55.04 83.224 54.24 82.296 53.92 80.888C54.048 83.96 53.024 85.496 50.848 85.496C48.736 85.56 45.76 83.928 41.92 80.6Z" fill="white"/>
</g>
<defs>
<clipPath id="clip0_156_60">
<rect width="100" height="100" rx="24" fill="white"/>
</clipPath>
</defs>
</svg>
